.
..............................Site Info...........................

 -   http://www.scenetime.com  *_*    

Scenetime .Always on time . friendly online private torrent community ..

     We care to share . Join us on  http://www.scenetime.com 

    Be the first to get new release at  http://www.scenetime.com

        Seed back for speed


...................................NFO:.................................................[IMG]http://img7.imageshack.us/img7/8167/mv5bmtuxmzezndq0nl5bml5.jpg[/IMG]


                                                  


                        Here.Comes.The.Boom.2012.HD.TS XviD.Line-DQ1  


Source........::: Here Comes The Boom 2012 HD TS XviD LiNE dvdracso[RiSES]-Thanks



General
Complete name                            : C:UsersrootDesktopHere.Comes.The.Boom.2012.HD.TS XviD.Line-DQ1Here.Comes.The.Boom.2012.HD.TS XviD.Line-DQ1.avi
Format                                   : AVI
Format/Info                              : Audio Video Interleave
File size                                : 940 MiB
Duration                                 : 1h 40mn
Overall bit rate                         : 1 303 Kbps
Writing application                      : VirtualDubMod 1.5.10.3 | www.virtualdub-fr.org || (build 2550/release)
Writing library                          : VirtualDubMod build 2550/release

Video
ID                                       : 0
Format                                   : MPEG-4 Visual
Format profile                           : Advanced Simple@L5
Format settings, BVOP                    : 2
Format settings, QPel                    : Yes
Format settings, GMC                     : No warppoints
Format settings, Matrix                  : Default (H.263)
Codec ID                                 : XVID
Codec ID/Hint                            : XviD
Duration                                 : 1h 40mn
Bit rate                                 : 1 197 Kbps
Width                                    : 640 pixels
Height                                   : 272 pixels
Display aspect ratio                     : 2.35:1
Frame rate                               : 25.000 fps
Color space                              : YUV
Chroma subsampling                       : 4:2:0
Bit depth                                : 8 bits
Scan type                                : Progressive
Compression mode                         : Lossy
Bits/(Pixel*Frame)                       : 0.275
Stream size                              : 864 MiB (92%)
Writing library                          : XviD 1.2.1 (UTC 2008-12-04)

Audio
ID                                       : 1
Format                                   : MPEG Audio
Format version                           : Version 1
Format profile                           : Layer 3
Mode                                     : Joint stereo
Mode extension                           : MS Stereo
Codec ID                                 : 55
Codec ID/Hint                            : MP3
Duration                                 : 1h 40mn
Bit rate mode                            : Constant
Bit rate                                 : 96.0 Kbps
Channel(s)                               : 2 channels
Sampling rate                            : 32.0 KHz
Compression mode                         : Lossy
Stream size                              : 69.2 MiB (7%)
Alignment                                : Aligned on interleaves
Interleave, duration                     : 40 ms (1.00 video frame)
Interleave, preload duration             : 504 ms
Writing library                          : LAME3.99r
Encoding settings                        : -m j -V 4 -q 2 -lowpass 15.1 -b 96





IMDB LINK....:: http://www.imdb.com/title/tt1648179/
Audio.............:: English
Subtitles........:: None
 


                                                               Screens                                                                          

[IMG]http://img89.imageshack.us/img89/3960/36629078n.png[/IMG]
[IMG]http://img22.imageshack.us/img22/9281/90590324.png[/IMG]
[IMG]http://img90.imageshack.us/img90/2093/95030108.png[/IMG]
[IMG]http://img109.imageshack.us/img109/7410/63141655.png[/IMG]
[IMG]http://img827.imageshack.us/img827/6847/53984833.png[/IMG]
[IMG]http://img16.imageshack.us/img16/3117/57067549.png[/IMG]
[IMG]http://img854.imageshack.us/img854/9659/92904443.png[/IMG]